<?xml version="1.0" encoding="utf-8"?>
<!-- Generator: Adobe Illustrator 19.0.0, SVG Export Plug-In . SVG Version: 6.00 Build 0)  -->
<svg version="1.1" id="Layer_1" xmlns="http://www.w3.org/2000/svg" xmlns:xlink="http://www.w3.org/1999/xlink" x="0px" y="0px"
	 viewBox="0 0 517.9 297.7" style="enable-background:new 0 0 517.9 297.7;" xml:space="preserve">
<style type="text/css">
	.st0{fill:none;stroke:#B9954F;stroke-width:1.5;stroke-miterlimit:10;}
</style>
<path id="XMLID_1_" class="st0" d="M473.1,275.1H43.6c-6.6,0-12-5.4-12-12v-250c0-6.6,5.4-12,12-12h429.4c6.6,0,12,5.4,12,12v250
	C485.1,269.7,479.7,275.1,473.1,275.1z"/>
<path id="XMLID_4_" class="st0" d="M513.9,275.5H1.5c0,0,0,22.2,37.7,22.2s216.4,0,216.4,0h8.1c0,0,178.8,0,216.4,0
	s37.7-22.2,37.7-22.2H5.5"/>
<rect id="XMLID_2_" x="53.9" y="23.3" class="st0" width="411" height="232"/>
</svg>
